<?xml version="1.0" standalone="no"?>
<!DOCTYPE svg PUBLIC "-//W3C//DTD SVG 20010904//EN"
 "http://www.w3.org/TR/2001/REC-SVG-20010904/DTD/svg10.dtd">
<svg version="1.0" xmlns="http://www.w3.org/2000/svg"
 width="1513.000000pt" height="1513.000000pt" viewBox="0 0 1513.000000 1513.000000"
 preserveAspectRatio="xMidYMid meet">

<g transform="translate(0.000000,1513.000000) scale(0.100000,-0.100000)"
fill="#000000" stroke="none">
<path d="M7215 14494 c-433 -32 -693 -68 -1020 -140 -1089 -240 -2061 -742
-2925 -1510 -898 -798 -1580 -1842 -1979 -3031 -101 -299 -252 -896 -232 -916
5 -5 24 -7 42 -5 33 3 34 5 47 63 122 549 289 1064 486 1503 897 1994 2653
3428 4700 3837 162 32 497 80 681 97 188 18 893 17 1080 0 755 -71 1446 -258
2128 -576 l97 -45 0 48 0 48 -112 53 c-263 124 -657 268 -948 348 -387 106
-702 164 -1130 208 -136 14 -793 27 -915 18z"/>
<path d="M10033 12574 c-69 -34 -102 -84 -55 -84 24 1 112 67 112 85 0 19 -17
19 -57 -1z"/>
<path d="M10212 12532 c-54 -36 -102 -80 -102 -92 0 -10 14 -14 40 -10 22 3
120 89 120 105 0 26 -17 25 -58 -3z"/>
<path d="M10306 12479 c-49 -43 -61 -79 -26 -79 22 0 120 89 120 108 0 26 -49
10 -94 -29z"/>
<path d="M10359 12282 c-93 -61 -104 -71 -89 -86 23 -23 130 49 130 88 0 20
-9 20 -41 -2z"/>
<path d="M10179 12238 c-34 -29 -75 -65 -93 -80 -43 -37 -25 -47 21 -13 67 50
153 127 153 136 0 19 -21 7 -81 -43z"/>
<path d="M13050 11266 c0 -1 37 -66 82 -142 475 -810 796 -1757 912 -2694 14
-107 27 -229 31 -270 3 -41 8 -101 11 -132 l6 -58 40 0 41 0 -7 108 c-31 512
-170 1206 -348 1737 -149 444 -373 944 -594 1323 l-78 132 -48 0 c-26 0 -48
-2 -48 -4z"/>
<path d="M4815 11194 c-122 -18 -268 -67 -358 -119 -117 -69 -293 -241 -341
-333 -20 -39 -20 -85 -1 -187 41 -213 105 -898 160 -1715 4 -47 13 -134 20
-195 8 -60 19 -156 24 -212 14 -150 19 -153 76 -48 45 82 51 89 104 113 64 30
156 40 217 23 58 -16 128 -65 167 -119 49 -67 58 -104 47 -182 -5 -35 -7 -67
-4 -70 3 -3 50 -5 105 -6 54 0 102 -4 105 -7 4 -3 13 -71 20 -149 7 -79 19
-195 28 -258 8 -63 17 -162 21 -220 8 -112 26 -166 67 -195 41 -28 149 -55
267 -65 63 -6 119 -14 124 -19 4 -4 14 -73 22 -152 8 -79 21 -189 29 -244 9
-55 18 -140 21 -190 4 -49 14 -114 22 -143 19 -63 47 -83 159 -113 70 -19 114
-22 389 -26 266 -5 322 -3 395 12 153 31 138 31 143 -6 11 -73 47 -375 47
-386 0 -8 -11 -10 -32 -7 -27 5 -42 -1 -79 -30 -55 -42 -117 -122 -125 -163
-4 -20 4 -55 24 -109 54 -143 57 -155 57 -274 0 -131 -21 -215 -82 -333 -72
-138 -156 -163 -220 -68 -31 46 -41 87 -55 216 -20 194 18 406 98 552 61 109
103 154 192 202 63 34 89 55 112 89 17 25 30 51 30 57 0 41 -87 47 -182 12
-186 -67 -347 -250 -454 -516 -62 -152 -85 -249 -91 -378 -7 -135 7 -215 49
-296 36 -66 77 -105 151 -144 45 -24 64 -28 142 -28 82 0 96 3 157 33 124 61
245 221 307 406 44 135 64 260 65 419 1 118 3 136 16 131 12 -6 117 -37 167
-50 9 -2 2 -32 -22 -99 -102 -282 -133 -554 -76 -680 41 -93 102 -138 186
-138 65 0 113 21 171 75 89 82 149 203 160 326 5 54 3 70 -9 80 -20 17 -36 0
-78 -79 -52 -97 -133 -168 -173 -153 -21 8 -26 37 -26 155 0 113 14 210 56
389 l26 110 34 0 c24 0 34 -4 34 -16 0 -32 -53 -222 -87 -312 -19 -52 -32
-100 -29 -108 11 -29 56 -15 104 34 177 178 267 566 185 795 -21 58 -16 69 58
119 62 42 118 58 210 61 58 2 71 -2 121 -32 47 -29 105 -87 138 -141 5 -8 12
-12 15 -8 8 7 65 281 65 311 0 39 12 48 51 37 73 -22 389 -33 601 -22 266 14
341 40 387 130 24 47 65 207 90 347 43 241 65 360 68 365 2 2 67 7 144 11 161
9 251 33 299 80 28 29 68 137 86 233 l7 38 -44 -8 c-24 -5 -80 -9 -124 -9 -77
0 -83 2 -153 44 -80 48 -124 93 -200 207 -63 92 -86 164 -85 264 1 143 79 276
215 365 42 27 85 58 97 69 25 23 138 57 209 63 39 4 58 1 70 -10 9 -9 29 -19
45 -22 15 -4 27 -11 27 -17 0 -5 33 -24 73 -43 88 -41 160 -112 208 -206 40
-78 62 -165 48 -190 -16 -31 -11 -97 9 -107 9 -5 90 -6 187 -1 284 13 351 46
399 199 29 90 76 319 130 635 20 116 61 344 91 507 30 164 55 311 55 326 0 23
-7 32 -35 45 -20 9 -43 17 -51 17 -8 0 -40 21 -69 47 -40 34 -58 59 -69 92
-19 58 -22 109 -9 141 6 14 19 52 29 84 18 58 21 61 107 118 83 54 93 58 148
58 74 0 81 10 110 150 26 128 23 247 -7 299 -44 75 -253 201 -436 262 -140 47
-267 69 -438 76 -329 12 -584 -66 -763 -236 -31 -30 -59 -52 -61 -50 -2 2 -11
20 -19 41 -48 116 -360 277 -647 333 -128 26 -373 31 -496 12 -264 -42 -419
-124 -609 -324 -38 -39 -41 -40 -49 -9 -12 49 -174 161 -328 227 -400 171
-917 157 -1204 -34 -88 -58 -192 -154 -251 -229 -24 -32 -48 -58 -52 -58 -5 0
-12 25 -16 54 -9 77 -37 111 -148 186 -268 182 -668 266 -1012 214z m390 -124
c123 -13 211 -35 335 -85 149 -61 278 -129 313 -166 54 -59 26 -164 -73 -266
-115 -120 -395 -209 -713 -227 -121 -7 -314 9 -367 31 -19 8 -82 28 -140 44
-105 29 -158 58 -228 123 -34 31 -82 113 -82 139 0 65 138 231 242 292 177
104 432 145 713 115z m3581 -21 c279 -28 512 -106 681 -231 91 -66 99 -93 58
-192 -17 -43 -39 -72 -81 -110 -62 -55 -130 -106 -141 -106 -4 0 -25 -9 -47
-19 -93 -44 -147 -61 -251 -80 -156 -27 -328 -45 -372 -37 -21 4 -96 16 -168
26 -126 20 -182 34 -275 70 -153 60 -191 84 -241 154 -23 31 -29 50 -29 93 0
72 22 112 117 211 66 68 93 88 164 121 98 46 209 79 329 96 111 17 127 17 256
4z m-1680 -14 c265 -46 427 -109 575 -222 82 -62 99 -122 55 -197 -27 -46
-113 -123 -166 -151 -19 -10 -55 -31 -79 -48 -58 -40 -123 -64 -224 -82 -118
-22 -331 -40 -482 -39 -117 0 -141 3 -245 33 -195 56 -343 142 -402 233 -47
72 0 180 126 290 116 102 223 151 393 182 107 19 339 20 449 1z m3569 -109
c50 -7 108 -22 130 -33 22 -11 51 -24 65 -28 59 -18 227 -99 289 -140 103 -68
115 -84 108 -146 -8 -62 -39 -112 -116 -189 -84 -82 -235 -143 -506 -202 -125
-27 -330 -29 -450 -5 -120 24 -179 42 -310 95 -93 37 -119 52 -167 100 -63 62
-83 104 -75 162 10 78 152 232 266 290 105 53 222 90 315 100 50 6 92 13 95
17 9 8 254 -6 356 -21z m-4677 -489 c10 -64 16 -119 14 -122 -9 -9 -91 -5 -97
4 -8 14 47 253 56 244 5 -5 17 -61 27 -126z m1827 -204 l7 -73 -28 0 c-54 0
-57 8 -34 106 11 49 23 96 27 104 7 18 18 -35 28 -137z m1855 -66 c47 -14 121
-35 165 -46 91 -25 346 -150 387 -190 39 -37 37 -88 -4 -168 -66 -129 -264
-260 -463 -308 -393 -94 -838 -25 -1054 163 -91 80 -109 135 -74 224 22 55
103 148 167 192 76 51 185 102 257 121 177 47 478 52 619 12z m-3580 8 c154
-19 197 -31 330 -89 210 -93 268 -126 300 -169 39 -53 40 -103 5 -145 -14 -17
-36 -54 -49 -84 -31 -68 -61 -95 -167 -152 -124 -66 -250 -91 -559 -113 l-245
-17 -100 24 c-138 32 -208 58 -304 115 -126 74 -192 168 -177 249 11 58 138
205 212 245 21 12 46 25 54 30 76 44 172 76 305 101 125 23 235 24 395 5z
m1806 -160 c137 -33 318 -100 387 -144 140 -88 151 -97 160 -131 28 -109 -104
-268 -305 -367 -94 -47 -307 -75 -583 -76 -196 -2 -202 -1 -320 31 -186 50
-256 81 -329 145 -110 97 -122 156 -53 255 51 72 155 174 212 207 50 30 209
84 295 101 106 22 411 10 536 -21z m1031 -685 c164 -18 314 -62 452 -132 153
-78 231 -145 231 -198 0 -46 -39 -128 -85 -178 -53 -60 -217 -149 -325 -178
-164 -45 -207 -53 -331 -69 -133 -17 -139 -17 -285 4 -269 39 -416 90 -511
178 -53 49 -103 135 -103 175 1 86 122 222 256 288 154 75 251 99 509 123 34
3 63 1 192 -13z m-2320 -46 c217 -30 413 -100 595 -211 43 -26 61 -45 72 -74
21 -52 20 -65 -8 -125 -52 -112 -169 -202 -331 -254 -55 -17 -125 -40 -155
-51 -111 -39 -387 -51 -570 -25 -104 15 -318 79 -398 120 -79 40 -162 154
-162 223 0 33 11 56 62 127 33 48 82 102 107 120 79 57 256 120 411 146 130
22 243 23 377 4z m1208 -665 c84 -14 153 -33 235 -65 150 -60 319 -155 364
-205 31 -34 36 -46 36 -89 0 -46 -4 -54 -61 -120 -33 -39 -86 -87 -117 -107
-32 -21 -66 -45 -77 -54 -24 -21 -183 -69 -320 -98 -284 -59 -430 -53 -681 30
-234 77 -302 119 -367 231 -37 64 -35 96 11 160 117 165 356 311 552 337 99
13 276 4 425 -20z"/>
<path d="M10511 5753 c-34 -43 -64 -156 -59 -220 4 -46 10 -61 32 -80 34 -29
47 -29 85 2 40 34 65 111 65 203 1 69 -1 75 -27 98 -37 32 -70 31 -96 -3z"/>
<path d="M7787 5726 c-49 -18 -64 -32 -89 -80 -33 -64 -37 -275 -8 -416 19
-95 76 -276 126 -403 19 -48 19 -49 -1 -60 -11 -6 -41 -30 -66 -54 -61 -57
-92 -128 -93 -213 l-1 -65 33 -3 c47 -5 105 33 186 119 111 117 186 249 279
484 73 188 155 453 177 576 9 51 9 64 -5 85 -19 29 -49 31 -92 4 -56 -34 -88
-90 -117 -207 -44 -181 -130 -463 -137 -455 -10 10 -37 219 -54 419 -16 197
-27 246 -58 268 -26 18 -31 18 -80 1z"/>
<path d="M8633 5680 c-43 -18 -82 -90 -134 -249 -95 -295 -127 -479 -99 -580
13 -50 58 -101 89 -101 37 0 101 72 208 233 58 87 107 157 109 154 2 -2 -7
-48 -21 -101 -43 -168 -25 -270 50 -302 61 -25 92 -1 221 164 60 78 115 147
120 152 5 5 9 -60 9 -173 0 -170 2 -185 24 -234 33 -74 89 -123 141 -123 31 0
47 7 67 26 22 23 25 31 19 72 -17 128 -18 343 -2 519 23 239 11 306 -58 333
-44 16 -76 -9 -180 -139 -52 -65 -99 -122 -104 -125 -5 -3 4 45 20 107 33 121
39 217 19 257 -24 45 -64 80 -91 80 -61 0 -146 -94 -279 -308 -35 -57 -65
-101 -67 -99 -2 2 6 35 17 73 77 255 76 336 -2 363 -37 13 -46 13 -76 1z"/>
<path d="M5536 5619 c-14 -17 -26 -35 -26 -40 0 -17 -19 -9 -25 12 -4 11 -17
25 -29 31 -39 17 -80 -13 -115 -84 -74 -149 -145 -667 -111 -807 23 -96 79
-103 154 -20 62 69 66 86 86 444 15 260 33 294 46 87 8 -127 14 -144 42 -119
44 40 75 204 70 371 -2 95 -6 117 -22 135 -26 28 -40 26 -70 -10z"/>
<path d="M3564 5576 c-120 -39 -231 -104 -309 -181 -61 -59 -76 -81 -98 -143
-46 -126 -32 -161 41 -105 20 15 33 20 30 12 -35 -94 -119 -447 -163 -684 -35
-187 -24 -235 51 -235 l34 0 -20 -37 c-32 -59 -25 -95 21 -118 37 -20 154 -19
209 0 106 37 302 203 409 346 75 99 118 188 138 286 35 172 -36 283 -181 283
l-55 0 78 78 c61 60 87 95 117 157 34 73 38 88 38 165 1 101 -18 142 -80 177
-54 31 -162 31 -260 -1z m30 -212 c59 -59 11 -245 -94 -366 -41 -47 -70 -61
-70 -34 0 7 18 98 40 201 22 103 40 189 40 191 0 6 41 23 57 23 6 1 19 -6 27
-15z m-112 -524 c27 0 63 -7 79 -16 37 -19 69 -83 69 -139 0 -93 -54 -241
-115 -313 -39 -46 -100 -66 -190 -60 -41 3 -78 7 -80 10 -3 3 6 25 19 49 34
61 80 202 111 344 33 152 33 151 47 137 7 -7 34 -12 60 -12z"/>
<path d="M4944 5530 c-180 -103 -334 -423 -338 -700 -1 -106 1 -119 24 -159
51 -89 129 -113 222 -68 96 47 238 186 290 284 26 49 18 76 -23 81 -19 2 -41
-15 -102 -78 -76 -77 -105 -96 -144 -88 -36 7 -23 33 28 57 137 64 284 366
264 541 -8 68 -36 135 -63 149 -38 20 -104 13 -158 -19z m36 -199 c0 -133 -48
-317 -107 -406 -26 -39 -26 -39 -35 -15 -26 70 84 490 128 490 11 0 14 -17 14
-69z"/>
<path d="M9748 5513 c-108 -113 -228 -624 -232 -983 -1 -119 2 -140 21 -182
16 -35 29 -49 49 -54 52 -13 76 38 148 309 l32 119 30 -49 c72 -115 198 -111
311 9 104 111 155 260 157 453 0 97 -4 134 -22 191 -38 125 -96 184 -180 184
-40 0 -50 -5 -83 -40 -21 -22 -56 -77 -78 -123 l-40 -82 2 118 c2 114 1 119
-22 138 -32 26 -63 24 -93 -8z m280 -386 c5 -125 -14 -227 -58 -303 -48 -85
-115 -90 -153 -13 -16 34 -16 38 3 94 27 79 113 253 151 305 22 30 34 39 42
31 5 -5 12 -57 15 -114z"/>
<path d="M4351 5420 c-59 -27 -169 -141 -218 -226 -118 -204 -178 -510 -124
-630 75 -165 280 -96 471 158 59 78 71 113 48 136 -24 24 -50 10 -136 -78 -90
-91 -121 -107 -150 -78 -18 18 -15 25 16 31 70 14 198 179 254 329 27 72 31
97 32 183 1 77 -3 107 -17 132 -35 65 -94 80 -176 43z m9 -207 c-1 -88 -21
-199 -53 -291 -25 -72 -64 -142 -79 -142 -13 0 -9 115 7 192 8 40 29 116 46
168 51 156 79 183 79 73z"/>
<path d="M10468 5373 c-87 -99 -173 -496 -147 -679 21 -149 108 -222 165 -137
48 72 124 436 127 613 2 111 -8 155 -46 198 -25 27 -77 30 -99 5z"/>
<path d="M10987 5265 c-95 -33 -210 -176 -267 -330 -42 -116 -53 -261 -25
-345 30 -90 122 -169 196 -170 94 -1 215 94 243 189 20 67 20 95 3 110 -11 8
-18 6 -33 -11 -29 -32 -105 -78 -131 -78 -78 0 -80 209 -4 411 25 65 57 102
66 76 7 -17 -7 -98 -26 -143 -16 -41 -7 -64 28 -64 79 0 150 108 141 213 -9
108 -99 175 -191 142z"/>
<path d="M11443 5096 c-104 -49 -180 -158 -190 -274 -9 -101 30 -159 176 -261
101 -71 127 -109 116 -169 -8 -42 -63 -102 -94 -102 -44 0 -54 76 -21 159 20
51 17 60 -22 74 -27 9 -86 -12 -122 -43 -45 -40 -59 -79 -54 -145 4 -48 10
-61 43 -95 48 -49 117 -74 206 -74 55 0 78 6 132 32 83 41 168 130 187 195 30
110 -13 183 -164 276 -47 28 -99 68 -116 88 -30 34 -32 41 -27 89 6 58 27 106
65 147 35 36 49 34 61 -10 14 -49 14 -98 -1 -185 -11 -69 -11 -72 11 -90 31
-24 61 -23 101 5 47 31 80 98 80 161 0 94 -67 195 -152 230 -57 24 -153 20
-215 -8z"/>
<path d="M7316 4041 c-40 -44 -60 -187 -33 -226 24 -32 65 -12 89 43 27 59 31
177 8 192 -23 15 -45 12 -64 -9z"/>
<path d="M6363 4025 c-60 -26 -142 -166 -214 -366 -69 -193 -88 -371 -49 -456
31 -69 104 -100 174 -73 75 28 156 160 159 258 3 75 -16 75 -60 0 -38 -65 -78
-100 -107 -96 -43 6 -29 212 30 453 20 80 55 177 62 170 19 -19 -25 -266 -68
-390 -36 -100 -36 -105 -8 -105 51 0 150 155 184 289 23 91 17 249 -11 287
-28 36 -54 45 -92 29z"/>
<path d="M13120 3848 c-380 -653 -915 -1288 -1488 -1767 l-73 -61 69 0 70 0
129 114 c547 481 1074 1136 1437 1789 l38 67 -50 0 -49 0 -83 -142z"/>
<path d="M5324 3941 c-57 -35 -106 -126 -164 -306 -90 -281 -114 -526 -56
-574 23 -20 45 -1 115 98 38 53 77 107 88 120 l20 24 6 -75 c6 -81 25 -131 57
-148 25 -13 75 7 108 42 23 25 23 26 8 92 -19 78 -20 165 -5 250 14 81 2 116
-40 116 -34 0 -88 -49 -156 -141 -54 -73 -55 -69 -25 108 20 117 70 294 91
323 20 28 2 -141 -26 -234 -32 -110 -23 -128 34 -68 21 22 52 67 67 99 25 50
29 70 29 146 0 87 0 89 -33 118 -38 34 -74 37 -118 10z"/>
<path d="M7647 3786 c-65 -24 -124 -84 -169 -174 -25 -50 -31 -76 -32 -127 -1
-81 16 -105 114 -159 56 -31 75 -48 81 -69 8 -31 -2 -77 -26 -113 -38 -58 -66
-2 -40 81 20 66 20 65 -17 65 -42 0 -114 -73 -124 -126 -15 -80 49 -141 137
-131 62 8 102 29 153 81 60 62 97 136 98 195 2 71 -19 96 -117 141 -47 22 -88
48 -95 60 -19 36 14 156 53 189 23 18 31 -18 28 -120 -2 -73 1 -87 15 -93 36
-14 93 50 114 126 14 50 -4 118 -39 152 -34 33 -84 41 -134 22z"/>
<path d="M6745 3774 c-42 -21 -101 -81 -130 -131 -37 -62 -84 -211 -91 -289
-15 -164 65 -257 177 -206 81 36 199 161 185 197 -12 32 -37 28 -79 -12 -50
-48 -80 -65 -101 -57 -23 9 -19 24 6 24 48 0 146 137 174 244 26 98 9 212 -37
236 -26 15 -70 12 -104 -6z m25 -147 c0 -29 -5 -80 -11 -113 -11 -63 -56 -174
-70 -174 -5 0 -9 21 -9 48 0 82 58 292 81 292 5 0 9 -24 9 -53z"/>
<path d="M7281 3771 c-42 -42 -94 -279 -95 -436 -1 -118 11 -168 46 -186 44
-24 73 50 112 286 33 200 30 299 -10 340 -20 20 -30 19 -53 -4z"/>
<path d="M8369 3767 c-138 -51 -239 -224 -239 -407 0 -103 25 -152 100 -197
98 -59 206 -34 293 68 47 55 68 115 74 221 12 188 -57 278 -167 220 -53 -29
-58 -45 -26 -86 60 -79 75 -205 34 -286 -13 -24 -31 -48 -40 -54 -26 -16 -69
4 -92 44 -43 72 -20 253 43 345 31 46 84 85 116 85 29 0 52 27 37 42 -16 16
-94 19 -133 5z"/>
<path d="M1951 3739 c39 -74 261 -406 367 -549 859 -1161 2046 -2014 3363
-2419 474 -145 983 -240 1432 -267 l118 -7 -3 44 -3 44 -45 3 c-889 52 -1794
308 -2574 729 -580 313 -1065 672 -1527 1133 -390 388 -659 719 -943 1158
l-98 152 -50 0 c-46 0 -48 -1 -37 -21z"/>
<path d="M8791 3747 c-33 -16 -68 -90 -96 -202 -52 -210 -59 -382 -16 -416 33
-27 66 -10 167 88 l89 87 6 -65 c8 -99 40 -139 109 -139 69 0 69 -1 74 255 2
127 0 240 -5 253 -6 15 -17 22 -34 22 -33 0 -90 -58 -179 -183 -61 -87 -86
-113 -86 -89 0 4 18 66 41 137 47 152 48 204 4 242 -30 26 -40 28 -74 10z"/>
<path d="M5807 3736 c-174 -62 -313 -382 -232 -535 52 -100 177 -131 281 -72
91 53 140 127 165 251 23 116 -7 251 -62 281 -32 17 -84 2 -124 -36 l-36 -33
34 -45 c61 -80 72 -198 27 -286 -32 -64 -95 -68 -128 -8 -26 48 -23 183 6 269
29 85 87 153 143 168 22 6 43 18 46 27 13 33 -52 43 -120 19z"/>
<path d="M9257 3702 c-38 -41 -77 -195 -98 -384 -17 -160 -1 -228 55 -228 25
0 70 43 84 80 6 14 15 100 22 190 6 91 15 169 20 174 9 9 18 -43 23 -124 3
-64 27 -60 50 8 20 63 32 214 19 257 -10 37 -49 47 -70 18 -13 -17 -14 -17
-29 5 -19 27 -54 29 -76 4z"/>
<path d="M3496 3690 c-15 -5 -36 -16 -46 -25 -17 -16 -17 -20 -4 -48 14 -31
13 -37 -64 -226 -78 -191 -80 -193 -120 -211 -27 -12 -48 -32 -66 -62 -32 -56
-33 -75 -1 -90 l24 -11 -34 -62 c-19 -34 -35 -74 -35 -88 0 -23 4 -27 30 -27
74 0 134 50 166 140 22 60 29 65 107 74 32 3 72 13 87 21 41 21 47 19 54 -17
3 -18 17 -56 30 -85 37 -78 87 -84 160 -21 l39 34 -36 94 c-53 142 -85 253
-106 370 -26 147 -38 185 -67 220 -27 32 -59 37 -118 20z m33 -351 c12 -50 21
-94 21 -99 0 -7 -111 -31 -118 -25 -3 3 69 215 73 215 2 0 13 -41 24 -91z"/>
<path d="M11563 3621 c-107 -67 -241 -350 -250 -531 -4 -75 -2 -90 19 -130 30
-58 78 -90 135 -90 24 0 57 7 72 14 37 19 87 78 106 123 18 43 20 113 3 113
-6 0 -34 -25 -63 -55 -38 -41 -58 -55 -78 -55 -42 0 -52 36 -38 141 17 134 98
389 123 389 23 0 -24 -207 -74 -328 -32 -78 -29 -100 12 -87 33 10 96 71 123
118 51 88 75 211 57 286 -22 93 -84 131 -147 92z"/>
<path d="M4712 3614 c-35 -24 -52 -66 -98 -249 -54 -209 -53 -205 -64 -185
-14 27 -38 152 -50 260 -6 58 -15 115 -20 128 -13 30 -59 29 -93 -2 -76 -70
-58 -279 43 -502 l29 -65 -54 -52 c-53 -52 -75 -98 -75 -159 0 -24 4 -28 29
-28 67 0 183 135 261 303 70 151 160 446 160 525 0 37 -3 42 -23 42 -12 0 -33
-7 -45 -16z"/>
<path d="M9972 3604 c-146 -73 -273 -328 -233 -471 33 -120 99 -115 244 17
l57 52 0 -40 c0 -68 -54 -282 -71 -282 -14 0 -11 39 12 129 11 45 18 85 15 88
-13 13 -118 -71 -143 -114 -47 -80 -28 -186 39 -214 24 -10 35 -8 83 15 125
62 201 217 236 480 11 84 10 97 -4 119 -14 22 -15 33 -5 80 15 72 3 115 -41
144 -48 32 -121 31 -189 -3z m95 -97 c-3 -29 -13 -71 -23 -93 -23 -52 -23 -57
4 -64 22 -5 19 -9 -39 -77 -35 -40 -68 -73 -76 -73 -20 0 -16 77 7 154 31 99
96 203 129 206 2 0 1 -24 -2 -53z"/>
<path d="M10489 3574 c-145 -44 -259 -264 -220 -421 17 -65 52 -108 114 -139
125 -64 274 1 327 143 29 78 28 201 -4 268 -12 28 -34 56 -49 64 -33 17 -88 8
-123 -22 l-26 -23 24 -29 c50 -60 73 -139 62 -212 -18 -120 -112 -154 -156
-56 -17 39 -20 60 -15 124 10 150 91 259 192 259 18 0 25 5 25 19 0 11 -8 22
-17 24 -50 14 -93 14 -134 1z"/>
<path d="M4000 3527 c-13 -7 -35 -28 -47 -46 -60 -89 -124 -429 -94 -504 13
-32 48 -49 74 -35 10 5 30 30 45 55 15 25 52 84 82 132 l55 86 7 -67 c16 -161
73 -218 149 -150 l32 29 -12 79 c-9 52 -11 121 -7 209 8 147 0 178 -46 183
-40 5 -73 -23 -127 -104 l-48 -74 1 96 c1 86 -1 98 -19 110 -16 11 -25 11 -45
1z"/>
<path d="M11010 3483 c-111 -54 -230 -250 -230 -377 1 -87 61 -166 127 -166
48 0 82 21 141 85 28 30 53 55 55 55 3 0 7 -30 9 -66 4 -58 8 -70 32 -91 32
-27 60 -25 102 5 31 23 34 33 22 83 -6 26 -7 92 -3 162 5 95 4 118 -8 122 -10
4 -12 20 -9 59 3 40 0 60 -13 80 -40 61 -151 84 -225 49z m84 -75 c10 -41 6
-82 -14 -127 -23 -51 -18 -65 22 -57 l29 6 -27 -35 c-34 -45 -102 -95 -120
-88 -53 20 -15 201 60 291 33 38 42 40 50 10z"/>
</g>
</svg>
